<svg width="175" height="152" viewBox="0 0 175 152" fill="none" xmlns="http://www.w3.org/2000/svg">
<path fill-rule="evenodd" clip-rule="evenodd" d="M174.999 70.4304V122C174.999 138.569 161.568 152 144.999 152H10.9813C3.95495 137.952 -0.000976562 122.112 -0.000976562 105.366C-0.000976562 47.6889 46.9257 0.762207 104.602 0.762207C131.712 0.762207 156.411 11.169 174.999 28.1674V49.399C140.513 76.6139 117.731 107.32 107.424 122.853C100.15 113.702 87.8121 99.9908 72.9531 90.6033L66.1619 86.3119L57.5577 99.9157L64.3703 104.207C84.9905 117.253 100.944 141.092 101.105 141.339L103.819 144.943H112.831L115.138 140.856C115.405 140.386 136.325 104.082 174.999 70.4304Z" fill="#79D067"/>
</svg>
