<svg width="175" height="151" viewBox="0 0 175 151" fill="none" xmlns="http://www.w3.org/2000/svg">
<path fill-rule="evenodd" clip-rule="evenodd" d="M174.627 27.0081C156.096 10.2268 131.508 0 104.502 0C46.8168 0 0 46.8273 0 104.502C0 121.204 3.92354 136.994 10.8985 151H98.3976C96.5567 149.309 95.4101 146.883 95.4101 144.223C95.4101 139.207 99.4857 135.131 104.502 135.131C109.622 135.131 113.698 139.207 113.698 144.223C113.698 146.883 112.551 149.309 110.726 151H144.627C161.195 151 174.627 137.569 174.627 121V27.0081ZM95.3056 64.8956C95.3056 59.89 99.4857 55.6995 104.502 55.6995C109.518 55.6995 113.593 59.89 113.593 64.8956V111.085C113.593 116.112 109.518 120.177 104.502 120.177C99.4857 120.177 95.3056 116.112 95.3056 111.085V64.8956Z" fill="#DB5856"/>
</svg>
